<?xml version="1.0" standalone="no"?>
<!DOCTYPE svg PUBLIC "-//W3C//DTD SVG 1.1//EN" "http://www.w3.org/Graphics/SVG/1.1/DTD/svg11.dtd" >
<svg xmlns="http://www.w3.org/2000/svg">
<metadata></metadata>
<defs>
<font id="courierregular" horiz-adv-x="1229" >
<font-face units-per-em="2048" ascent="1638" descent="-410" />
<missing-glyph horiz-adv-x="500" />
<glyph horiz-adv-x="2048" />
<glyph horiz-adv-x="2048" />
<glyph unicode="&#xd;" horiz-adv-x="0" />
<glyph unicode=" " />
<glyph unicode="!" d="M484 82q0 46 36 80t92 34q58 0 96 -32t38 -82q0 -47 -38 -80q-40 -32 -96 -32q-49 0 -88.5 31t-39.5 81zM542 1172h144l-37 -764h-69z" />
<glyph unicode="&#x22;" d="M383 1151h168l-33 -479h-102zM678 1151h168l-33 -479h-103z" />
<glyph unicode="#" d="M205 404v69h207l16 299h-223v70h225l26 466h70l-26 -466h248l26 466h70l-27 -466h207v-70h-209l-17 -299h226v-69h-230l-26 -470h-70l27 470h-248l-27 -470h-69l27 470h-203zM482 473h247l17 299h-248z" />
<glyph unicode="$" d="M230 30q18 64 18 118q0 74 -18 149l56 12q14 -78 50.5 -125t99 -67.5t154.5 -20.5q186 0 258 67t72 142q0 106 -81 149t-253 87.5t-259 104.5t-87 190q0 91 45.5 155.5t120.5 98.5q76 34 168 40v226h69v-226q68 -7 129.5 -31t71.5 -24q38 0 57 86l61 -10 q-30 -87 -30 -149q0 -26 16 -111l-64 -13q-7 90 -89 136.5t-189 46.5q-112 0 -198 -53.5t-86 -161.5q0 -110 81 -156t252 -91t259 -104t88 -190q0 -88 -55 -149t-137.5 -92.5t-166.5 -37.5v-284h-69v284q-84 8 -224 42q-16 4 -22 4q-22 0 -46 -58z" />
<glyph unicode="%" d="M198 482l826 364l30 -70l-826 -364zM205 1010q0 72 37.5 133t102 96t141.5 35q76 0 141 -34t103 -94t38 -136q0 -75 -38.5 -136t-103 -94.5t-138.5 -33.5q-72 0 -138 33t-105.5 93t-39.5 138zM286 1010q0 -56 28 -101t74 -69.5t100 -24.5q88 0 143 56.5t55 138.5 q0 81 -55 137.5t-143 56.5q-56 0 -103 -26t-73 -71t-26 -97zM459 234q0 72 37.5 133t102 96t141.5 35q76 0 140.5 -34t103 -94t38.5 -136q0 -75 -38.5 -136t-103 -94.5t-138.5 -33.5q-72 0 -138 32.5t-105.5 93t-39.5 138.5zM540 234q0 -56 28 -101t74 -69.5t100 -24.5 q88 0 143 56.5t55 138.5q0 81 -55 137.5t-143 56.5q-56 0 -103 -26t-73 -71t-26 -97z" />
<glyph unicode="&#x26;" d="M144 260q0 126 78 215.5t184 122.5q-20 29 -44 63.5t-44.5 70.5t-33 74t-12.5 74q0 68 36 121t95 82t123 29q130 0 272 -102l-44 -58q-118 84 -224 84q-66 0 -121 -40t-55 -107q0 -36 15 -78t39.5 -86.5t48 -78.5t35.5 -52q51 -74 120.5 -177t114.5 -169q59 108 121 299 h206v-70h-157q-50 -167 -127 -291l82 -116h236v-70h-273l-88 125q-121 -155 -287 -155q-79 0 -147.5 36t-108.5 103t-40 151zM226 266q0 -96 61 -158.5t153 -62.5q72 0 137 37.5t109 101.5l-246 358q-101 -40 -157.5 -113t-56.5 -163z" />
<glyph unicode="'" d="M530 1151h168l-32 -479h-103z" />
<glyph unicode="(" d="M565 524q0 112 30.5 243t86 261t131.5 246h74q-103 -190 -164 -374t-61 -376q0 -139 33.5 -273t82 -246.5t109.5 -225.5h-74q-58 84 -115.5 208.5t-95.5 266.5q-37 142 -37 270z" />
<glyph unicode=")" d="M342 -221q101 187 163.5 372t62.5 377q0 199 -65 383.5t-161 362.5h74q58 -84 115 -208t95 -267t38 -271q0 -84 -17 -179t-50 -194t-78 -193.5t-103 -182.5h-74z" />
<glyph unicode="*" d="M238 926l34 106l302 -110l-15 321h111l-14 -321l300 110l35 -106l-309 -84l198 -250l-88 -66l-178 266l-178 -266l-88 66l199 250z" />
<glyph unicode="+" d="M178 400v75h398v397h76v-397h398v-75h-398v-400h-76v400h-398z" />
<glyph unicode="," d="M370 -230l152 480h182l-214 -480h-120z" />
<glyph unicode="-" d="M226 488v82h778v-82h-778z" />
<glyph unicode="." d="M469 94q0 56 42.5 92.5t100.5 36.5q61 0 104 -36q44 -37 44 -91q0 -52 -42 -89t-104 -37q-54 0 -99.5 34.5t-45.5 89.5z" />
<glyph unicode="/" d="M256 -135l654 1423l63 -28l-653 -1424z" />
<glyph unicode="0" d="M232 624q0 154 29 299t113.5 248t237.5 103q120 0 198.5 -62.5t119 -162t54.5 -205.5t14 -220q0 -265 -82 -459.5t-302 -194.5q-154 0 -239.5 102t-114.5 246q-28 144 -28 306zM314 624q0 -202 54 -394q54 -191 246 -191q181 0 242 181q60 180 60 404q0 130 -21 257 t-88 225t-193 98q-177 0 -238.5 -177t-61.5 -403z" />
<glyph unicode="1" d="M209 1096l397 178h50v-1204h364v-70h-805v70h365v1116l-344 -154z" />
<glyph unicode="2" d="M158 0v88l586 540q124 114 124 277q0 102 -53.5 168t-126 95.5t-127.5 29.5q-54 0 -120.5 -22.5t-115.5 -71t-49 -123.5h-76v115q78 97 178.5 137.5t184.5 40.5q106 0 195 -50t140.5 -136t51.5 -189q0 -175 -147 -313q-56 -52 -182.5 -169t-238.5 -221t-138 -126h632v206 h70v-276h-788z" />
<glyph unicode="3" d="M168 68l28 69q192 -92 340 -92q88 0 162 37.5t117 105.5t43 156q0 138 -91 210t-241 72h-44v70q88 0 158 30t111 89t41 141q0 113 -77 177.5t-189 64.5q-142 0 -296 -110l-38 59q100 66 176 96.5t156 30.5q92 0 173 -38t129 -108t48 -162q0 -199 -188 -290 q76 -22 134 -71t89 -117t31 -148q0 -111 -56 -195.5t-151 -129.5t-205 -45q-90 0 -153.5 20t-206.5 78z" />
<glyph unicode="4" d="M180 307v103l512 864h127v-897h191v-70h-191v-237h191v-70h-549v70h283v237h-564zM244 377h500v827h-11z" />
<glyph unicode="5" d="M203 60l25 63q190 -78 333 -78q108 0 189.5 38.5t126.5 112.5t45 176q0 96 -42.5 171t-118.5 116t-171 41q-152 0 -283 -96l-43 22v617h678v-69h-602v-464q76 34 130 50t130 16q131 0 222.5 -57.5t136.5 -148.5t45 -191q0 -78 -29 -155.5t-82 -131.5q-119 -122 -319 -122 q-94 0 -177.5 21t-193.5 69z" />
<glyph unicode="6" d="M242 502q0 98 15 204t56 210q41 106 111 182q160 176 444 176h150v-70q-168 0 -263.5 -13t-154.5 -44q-58 -31 -114 -93q-56 -60 -92 -147t-52 -177t-18 -177l4 -4q40 84 128 141.5t189 57.5q102 0 183.5 -54t128.5 -144t47 -192q0 -104 -46 -193t-125 -142t-171 -53 q-116 0 -198 50.5t-131 131t-70 173.5t-21 177zM328 430q0 -95 40.5 -185t113 -145t163.5 -55q80 0 143.5 41.5t98.5 111.5t35 154q0 83 -33.5 157t-95.5 118.5t-144 44.5q-100 0 -191.5 -63.5t-129.5 -178.5z" />
<glyph unicode="7" d="M182 981v262h793v-82l-401 -1161h-88l419 1174h-653v-193h-70z" />
<glyph unicode="8" d="M223 330q0 62 33.5 126t89.5 112.5t117 64.5v4q-95 34 -156 119.5t-61 187.5q0 94 51 170t135.5 118t179.5 42q96 0 182 -42t137.5 -117.5t51.5 -170.5q0 -101 -60.5 -187.5t-156.5 -121.5v-4q64 -16 119.5 -65t88 -112.5t32.5 -123.5q0 -104 -52 -186.5t-142 -127.5 q-90 -46 -198 -46q-100 0 -190 43t-145.5 125t-55.5 192zM305 309q0 -78 44.5 -140t116.5 -96q70 -34 148 -34q124 0 217 77q93 78 93 196q0 128 -93 204t-219 76q-82 0 -152 -34.5t-112.5 -99t-42.5 -149.5zM328 942q0 -122 90 -201t196 -79q76 0 142.5 38t105.5 103 t39 139q0 76 -38.5 136t-105.5 93t-145 33q-80 0 -145 -34.5t-102 -94.5t-37 -133z" />
<glyph unicode="9" d="M211 -30v69q169 0 264 12.5t157 46.5t122 102q140 165 151 490l-4 4q-42 -85 -130 -142q-87 -56 -185 -56q-102 0 -185 53t-129 143t-46 192q0 110 48 200t126.5 140t162.5 50q129 0 215 -59t131 -145.5t61.5 -168t16.5 -143.5q0 -200 -43 -349t-124.5 -246.5 t-198.5 -145t-265 -47.5h-145zM307 891q0 -80 32.5 -154t94.5 -119q64 -46 146 -46q71 0 136.5 31.5t114 86t70.5 121.5q0 91 -39 181t-111.5 148t-164.5 58q-84 0 -148 -42t-97.5 -112t-33.5 -153z" />
<glyph unicode=":" d="M469 96q0 54 43 90.5t100 36.5q63 0 105.5 -36.5t42.5 -88.5q0 -53 -42 -90.5t-104 -37.5q-57 0 -101 36q-44 34 -44 90zM469 662q0 55 43 90.5t100 35.5q62 0 105 -37t43 -87q0 -53 -42 -91.5t-104 -38.5q-57 0 -101 36t-44 92z" />
<glyph unicode=";" d="M370 -230l152 480h182l-214 -480h-120zM469 662q0 51 41.5 88.5t103.5 37.5q60 0 103 -36t43 -88q0 -53 -42 -91.5t-104 -38.5q-60 0 -102.5 37t-42.5 91z" />
<glyph unicode="&#x3c;" d="M84 436l948 440l31 -65l-817 -375l817 -374l-31 -66z" />
<glyph unicode="=" d="M178 207v75h872v-75h-872zM178 590v76h872v-76h-872z" />
<glyph unicode="&#x3e;" d="M166 62l817 374l-817 375l30 65l949 -440l-949 -440z" />
<glyph unicode="?" d="M278 914v188q106 37 174.5 53.5t145.5 16.5q115 0 204.5 -42t140.5 -117t51 -169q0 -98 -50 -166t-132 -110q-82 -40 -198 -68v-128h-76v179q163 33 268.5 97.5t105.5 197.5q0 102 -77 176t-233 74q-130 0 -248 -52v-130h-76zM444 82q0 47 37 80.5t95 33.5q56 0 93 -32.5 t37 -81.5q0 -47 -37 -79.5t-93 -32.5q-51 0 -91.5 30t-40.5 82z" />
<glyph unicode="@" d="M172 649q0 200 58 340.5t165 212.5t252 72q100 0 171.5 -41t106.5 -105t35 -126v-600h117v-70h-193v92h-4q-33 -48 -100 -79q-66 -31 -126 -31q-92 0 -152 58t-60 154q0 74 43 127.5t111 87t144 49t144 15.5v163q0 131 -77.5 183.5t-163.5 52.5q-110 0 -199.5 -60 t-142.5 -185t-53 -310q0 -108 12.5 -211.5t49 -194.5t106.5 -147.5t180 -56.5q72 0 158 30.5t147 76.5l25 -64q-172 -112 -332 -112q-422 0 -422 679zM518 526q0 -57 40 -97t98 -40q70 0 130 36.5t98 94.5v209q-70 0 -157 -22t-148 -68q-61 -47 -61 -113z" />
<glyph unicode="A" d="M20 0v70h105l420 1012h-309v69h426l442 -1081h104v-70h-401v70h219l-129 313h-569l-134 -313h226v-70h-400zM354 452h518l-258 630h-4z" />
<glyph unicode="B" d="M102 0v70h180v1012h-180v69h572q127 0 213.5 -38t128 -103.5t41.5 -145.5q0 -90 -52 -158.5t-147 -103.5v-4q125 -26 198.5 -100t73.5 -197q0 -89 -49 -157.5t-138 -106t-201 -37.5h-640zM358 70h268q123 0 210 13t149.5 65.5t62.5 160.5q0 98 -63 155t-151 79t-174 22 h-302v-495zM358 635h342q68 0 131.5 27.5t103.5 79t40 118.5t-36.5 117.5t-104.5 77.5t-162 27h-314v-447z" />
<glyph unicode="C" d="M98 586q0 197 82 333t208.5 202.5t256.5 66.5q99 0 164 -25t149 -81q10 -8 27 -9q32 0 39 84l66 -14q-20 -99 -21 -179q1 -94 23 -178l-68 -14q-8 159 -112 252.5t-265 93.5q-90 0 -173 -35t-147.5 -102.5t-102.5 -167.5t-38 -223q0 -144 55 -270.5t160 -203.5t246 -77 q193 0 395 141l48 -61q-214 -156 -438 -156q-168 0 -293.5 82.5t-192.5 224.5q-68 144 -68 316z" />
<glyph unicode="D" d="M102 0v70h166v1012h-166v69h588q107 0 194 -38t148.5 -110.5t95 -176.5t33.5 -232q0 -173 -56.5 -307.5t-170.5 -210.5t-276 -76h-556zM344 70h291q130 0 229 56t154 174t55 292q0 202 -73.5 311t-160.5 144t-149 35h-346v-1012z" />
<glyph unicode="E" d="M123 0v70h180v1012h-180v69h971l8 -355h-68l-20 286h-635v-451h371v151h69v-372h-69v151h-371v-491h653l12 286h68v-356h-989z" />
<glyph unicode="F" d="M123 0v70h180v1012h-180v69h971l8 -355h-68l-20 286h-635v-451h371v151h69v-372h-69v151h-371v-491h273v-70h-529z" />
<glyph unicode="G" d="M78 586q0 196 81 332.5t208 203t257 66.5q97 0 163 -25t147 -77q16 -12 30 -13q15 0 22.5 13.5t10.5 32.5t7 38l65 -14q-21 -119 -21 -179q0 -100 23 -178l-67 -14q-8 159 -112 252q-106 94 -266 94q-118 0 -224 -61.5t-171 -182t-65 -286.5q0 -146 50.5 -271t156 -201.5 t258.5 -76.5h4q161 0 350 71v312h-311v70h490v-70h-103v-360q-229 -98 -426 -99q-132 0 -237.5 50t-176.5 137.5t-107 199.5q-36 114 -36 236z" />
<glyph unicode="H" d="M80 0v70h158v1012h-158v69h391v-69h-157v-451h602v451h-158v69h391v-69h-158v-1012h158v-70h-391v70h158v491h-602v-491h157v-70h-391z" />
<glyph unicode="I" d="M211 0v70h367v1012h-367v69h807v-69h-364v-1012h364v-70h-807z" />
<glyph unicode="J" d="M84 520h72l14 -260q4 -70 55.5 -120t132.5 -76q80 -25 168 -25q125 0 186.5 53.5t76 125.5t14.5 169v695h-414v69h756v-69h-267v-724q0 -395 -346 -395h-2q-96 0 -193 33.5t-235 91.5z" />
<glyph unicode="K" d="M92 0v70h180v1012h-180v69h436v-69h-180v-568l580 568h-193v69h381v-69h-88l-460 -449q181 -51 335 -361l88 -202h187v-70h-238l-96 234q-68 136 -144 226q-77 90 -186 124l-166 -162v-352h180v-70h-436z" />
<glyph unicode="L" d="M110 0v70h210v1012h-210v69h546v-69h-260v-1012h624l28 422h72l-24 -492h-986z" />
<glyph unicode="M" d="M22 0v70h158v1012h-158v69h302l290 -737l291 737h301v-69h-158v-1012h158v-70h-444v70h211v1012h-13l-325 -791h-41l-326 791h-12v-1012h211v-70h-445z" />
<glyph unicode="N" d="M28 0v70h175v1012h-175v69h298l642 -1085h5v1016h-225v69h452v-69h-152v-1108h-108l-658 1110h-4v-1014h226v-70h-476z" />
<glyph unicode="O" d="M88 574q0 117 34 227t100.5 197.5t166 138.5t223.5 51q126 0 226.5 -51t167 -137t100.5 -196t34 -228q0 -152 -58.5 -293t-178 -230.5t-291.5 -89.5q-158 0 -278 84t-183 224.5t-63 302.5zM176 574q0 -136 51.5 -261t150 -202.5t234.5 -77.5q140 0 240 78.5t150 204.5 t50 260q0 133 -50 258.5t-150 204.5t-240 79q-138 0 -237 -80t-149 -206t-50 -258z" />
<glyph unicode="P" d="M176 0v70h176v1012h-176v69h541q148 0 240.5 -58.5t131.5 -139.5t39 -155q0 -118 -88 -226q-90 -109 -328 -109h-284v-393h307v-70h-559zM428 532h297q158 0 239.5 74t81.5 199q0 93 -49.5 156t-121 92t-135.5 29h-312v-550z" />
<glyph unicode="Q" d="M88 578q0 120 36 231t105 196.5t166.5 134t216.5 48.5q126 0 226.5 -51t167 -137t100.5 -196t34 -228q0 -126 -37 -237.5t-106.5 -196.5t-165 -132t-209.5 -47q-20 0 -52 4q-23 -42 -91 -90l5 -4q44 19 98 19q80 0 182 -44q108 -42 154 -42q70 0 147 48l45 -52 q-84 -66 -186 -66q-64 0 -170 43q-102 43 -174 43q-66 0 -114.5 -19t-127.5 -61l-35 58q50 32 88.5 70t100.5 106q-132 34 -224 126t-136 218t-44 258zM176 574q0 -132 50.5 -257t150 -204.5t235.5 -79.5q105 0 188.5 45.5t139 122.5t84 175t28.5 200q0 133 -50 258.5 t-150 204.5t-240 79q-136 0 -235 -78t-150 -203t-51 -263z" />
<glyph unicode="R" d="M92 0v70h172v1012h-172v69h608q127 0 199 -55.5t96.5 -122.5t24.5 -115q0 -132 -86 -217t-226 -99v-4q63 -34 112.5 -90.5t82 -117t71.5 -146.5t54 -114h162v-70h-217q-66 163 -105.5 245.5t-107.5 159.5t-172 131h-248v-466h188v-70h-436zM340 606h278q193 0 256.5 85 t63.5 163t-50 153t-194 75h-354v-476z" />
<glyph unicode="S" d="M162 324l68 12q30 -161 130 -229t256 -68q226 0 298.5 88t72.5 176q0 90 -47 134.5t-112.5 58.5t-169.5 22q-430 38 -430 322q0 78 45.5 159t140 135t229.5 54q146 0 258 -64q47 -26 55 -26q30 0 46 84l67 -14q-4 -18 -14.5 -56.5t-17.5 -72t-7 -64.5q0 -22 7 -83.5 t7 -78.5l-73 -6q-11 131 -43 184q-34 63 -116 92t-163 29q-92 0 -169.5 -33t-123.5 -95q-47 -60 -47 -144q0 -215 336 -244q128 -11 215 -32t148 -82.5t61 -176.5q0 -110 -61.5 -187.5t-158.5 -116t-202 -38.5h-5q-171 0 -292 65q-42 28 -59 28q-36 0 -45 -97l-70 11 q16 95 16 153q0 85 -30 201z" />
<glyph unicode="T" d="M92 686l35 465h977l34 -465l-71 -10l-29 406h-384v-1012h254v-70h-584v70h254v1012h-386l-28 -406z" />
<glyph unicode="U" d="M49 1082v69h437v-69h-210v-660q0 -194 84 -288.5t252 -94.5q192 0 266 105t74 292v646h-208v69h436v-69h-152v-695q0 -132 -48.5 -227.5t-141.5 -145.5q-94 -51 -224 -51q-122 0 -215 46.5t-146 142.5t-53 237v693h-151z" />
<glyph unicode="V" d="M6 1082v69h418v-69h-205l389 -1039h12l390 1039h-205v69h417v-69h-136l-416 -1108h-111l-415 1108h-138z" />
<glyph unicode="W" d="M6 1082v69h383v-69h-217l135 -988h5l278 816h49l279 -816h4l135 988h-217v69h382v-69h-92l-157 -1108h-89l-268 794h-4l-268 -794h-88l-158 1108h-92z" />
<glyph unicode="X" d="M62 0v70h96l410 536l-361 476h-103v69h380v-69h-187l317 -422l318 422h-186v69h378v-69h-102l-360 -476l409 -536h97v-70h-422v70h237l-369 483l-368 -483h238v-70h-422z" />
<glyph unicode="Y" d="M64 1082v69h378v-69h-172l344 -564l344 564h-172v69h380v-69h-124l-390 -640v-372h253v-70h-583v70h254v372l-390 640h-122z" />
<glyph unicode="Z" d="M176 0v76l738 1006h-654v-304h-70v373h816v-65l-746 -1016h723v338h69v-408h-876z" />
<glyph unicode="[" d="M565 -221v1495h340v-70h-264v-1356h264v-69h-340z" />
<glyph unicode="\" d="M256 1260l64 28l653 -1423l-63 -29z" />
<glyph unicode="]" d="M324 -152h264v1356h-264v70h340v-1495h-340v69z" />
<glyph unicode="^" d="M192 784l422 490l422 -490l-53 -49l-369 431l-368 -431z" />
<glyph unicode="_" d="M0 -154h1229v-102h-1229v102z" />
<glyph unicode="`" d="M309 1376h193l272 -358h-82z" />
<glyph unicode="a" d="M123 252q0 70 36 127.5t95.5 97t127 59t130.5 19.5q58 0 210 -13q150 -14 148 -14v78q0 228 -274 228q-147 0 -346 -84l-29 65q210 88 379 88q151 0 248.5 -66.5t97.5 -203.5v-563h184v-70h-260v172q-84 -86 -192 -144t-224 -58q-88 0 -163 35t-121.5 99t-46.5 148z M211 248q0 -86 74.5 -144.5t170.5 -58.5t208 58q112 57 206 169v184q-245 30 -309 30q-140 0 -218.5 -45t-105 -99t-26.5 -94z" />
<glyph unicode="b" d="M43 1266l281 22v-598h4q64 105 162 159t214 54q132 0 237 -63.5t164 -171.5t59 -236q0 -88 -35.5 -171t-98 -149t-144.5 -104t-169 -38q-128 0 -231.5 65t-157.5 161h-4v-196h-250v70h174v1140l-199 -14zM316 450q0 -111 52.5 -204.5t141 -147t190.5 -53.5t188 51.5 t136.5 140.5t50.5 195q0 108 -43.5 198.5t-127 144t-196.5 53.5q-104 0 -195 -48t-144 -135t-53 -195z" />
<glyph unicode="c" d="M150 430q0 138 66 246t177.5 167.5t245.5 59.5q75 0 135 -16.5t111 -38.5t59 -22q12 0 20 8t11 17t7 27t5 25l67 -12q-20 -101 -20 -147q0 -44 20 -158l-67 -10q-8 126 -98.5 189t-232.5 63q-126 0 -221 -49.5t-146 -138t-51 -202.5q0 -101 46 -190.5t136 -146t213 -56.5 q112 0 187 33q76 32 208 116l41 -59q-228 -165 -430 -165q-95 0 -184 33t-158 95t-108 147t-39 185z" />
<glyph unicode="d" d="M106 432q0 134 61 241.5t166 168.5t232 61q244 0 377 -213h4v520l-342 -22l-8 70l426 30v-1218h174v-70h-250v196h-4q-56 -100 -161 -163t-224 -63q-88 0 -170 37t-145.5 103t-99.5 149t-36 173zM194 430q0 -104 51 -193t137 -141q88 -51 190 -51q105 0 192.5 56.5 t138.5 150.5t51 198q0 105 -52.5 191.5t-143.5 136.5t-197 50q-108 0 -191.5 -51.5t-129.5 -142t-46 -204.5z" />
<glyph unicode="e" d="M150 430q0 146 69 253.5t182.5 163.5t237.5 56q144 0 247.5 -61.5t156.5 -155.5t53 -188q0 -24 -4 -78h-854q6 -116 62 -201t147 -129.5t196 -44.5q102 0 206.5 31.5t223.5 89.5l35 -66q-254 -130 -465 -130q-98 0 -188.5 34t-158.5 96t-107 147.5t-39 182.5zM234 490 h780q0 94 -46.5 171t-133.5 122t-201 45q-100 0 -186 -39.5t-142.5 -116t-70.5 -182.5z" />
<glyph unicode="f" d="M248 0v70h221v733h-221v69h221v148q0 78 23.5 136.5t94 95t203.5 36.5q25 0 136.5 -13t146.5 -13l-31 -76q-180 26 -272 26q-97 0 -145.5 -22t-64 -65t-15.5 -117v-136h446v-69h-446v-733h446v-70h-743z" />
<glyph unicode="g" d="M106 467q0 120 61 220.5t162.5 158t217.5 57.5q108 0 203 -56.5t141 -156.5h4v182h250v-69h-174v-770q0 -98 -29.5 -175.5t-114 -128.5t-235.5 -51q-48 0 -151 14t-247 52l21 74q219 -64 369 -64q308 0 311 248v211h-4q-140 -195 -346 -195q-120 0 -221.5 58 t-159.5 160.5t-58 230.5zM194 467q0 -104 46 -190t126.5 -134.5t180.5 -48.5q96 0 175.5 47t126 129t46.5 180t-43.5 185t-122.5 140t-180 53q-93 0 -175 -48t-131 -131t-49 -182z" />
<glyph unicode="h" d="M51 1266l281 22v-557q188 172 387 172q287 -1 287 -283v-550h172v-70h-422v70h174v512q0 126 -44.5 186t-160.5 60q-106 0 -195.5 -46t-197.5 -135v-577h174v-70h-424v70h174v1140l-198 -14z" />
<glyph unicode="i" d="M209 0v70h369v733h-310v69h386v-802h366v-70h-811zM520 1128v218h134v-218h-134z" />
<glyph unicode="j" d="M182 -286l18 69q158 -29 252 -29q146 0 222 68t76 217v764h-535v69h611v-829q0 -192 -100 -279q-100 -86 -278 -86q-96 0 -266 36zM692 1128v218h134v-218h-134z" />
<glyph unicode="k" d="M102 1266l281 22v-827l441 337v5h-138v69h410v-69h-158l-358 -279l446 -454h148v-70h-404v70h148l-400 407l-135 -98v-379h-250v70h174v1140l-199 -14z" />
<glyph unicode="l" d="M209 0v70h369v1140l-342 -22l-8 70l426 30v-1218h366v-70h-811z" />
<glyph unicode="m" d="M4 0v70h150v733h-150v69h226v-84q98 114 210 115q68 0 124 -45t77 -100q39 52 100 98.5t131 46.5q56 0 107.5 -27.5t85 -88.5t33.5 -156v-561h126v-70h-202v612q0 216 -144 216q-116 0 -214 -152v-606h130v-70h-206v570q0 146 -36 202t-114 56q-104 0 -208 -128v-630h149 v-70h-375z" />
<glyph unicode="n" d="M68 0v70h174v733h-174v69h250v-141q194 172 386 172q96 0 160 -32.5t95.5 -94.5t31.5 -152v-554h173v-70h-422v70h174v510q0 120 -42 184t-164 64q-106 0 -196 -47t-196 -134v-577h174v-70h-424z" />
<glyph unicode="o" d="M127 432q0 141 67.5 248.5t179 165t238.5 57.5q134 0 246.5 -59.5t178 -167.5t65.5 -244q0 -100 -39.5 -186t-108 -148t-156.5 -95q-90 -33 -184 -33q-93 0 -181.5 33t-157 95t-108.5 148t-40 186zM215 430q0 -108 54.5 -197t146.5 -138.5t198 -49.5q80 0 154 29t129 81 t86 123.5t31 153.5q0 110 -51.5 201t-143 143t-207.5 52q-111 0 -202.5 -51.5t-143 -142t-51.5 -204.5z" />
<glyph unicode="p" d="M33 -252h174v1055h-174v69h249v-182h4q136 213 378 213q132 0 237 -63.5t163 -171.5t58 -236q0 -120 -62.5 -227t-166 -171t-217.5 -64q-122 0 -227 62t-163 164h-4v-448h314v-70h-563v70zM274 448q0 -104 51 -197t139 -149q90 -57 196 -57q100 0 186 51t137 140.5 t51 195.5q0 113 -45.5 203.5t-129 141.5t-191.5 51q-105 0 -195.5 -48.5t-144.5 -135t-54 -196.5z" />
<glyph unicode="q" d="M106 432q0 128 59 236t163.5 171.5t236.5 63.5q242 0 377 -213h4v182h250v-69h-174v-1055h174v-70h-563v70h313v448h-4q-37 -66 -97.5 -118t-135.5 -80t-156 -28q-114 0 -217.5 64t-166.5 171t-63 227zM194 432q0 -106 51 -195.5t137 -140.5q88 -51 188 -51 q106 0 195 56.5t139 149.5t50 197q0 110 -53 196.5t-144 135t-196 48.5q-108 0 -191.5 -51t-129.5 -141.5t-46 -203.5z" />
<glyph unicode="r" d="M137 0v70h265v733h-246v69h321v-235q98 90 154.5 137t139.5 88t167 41q82 0 133 -38t59 -107l-73 -12q-16 88 -119 88q-56 0 -114.5 -24t-140 -85t-206.5 -176v-479h401v-70h-741z" />
<glyph unicode="s" d="M192 -22q18 54 19 132q-1 102 -19 168l72 11q12 -130 116 -190t242 -60q120 0 226 44.5t106 152.5q0 96 -81 127t-242 35q-89 1 -182 18.5t-165 75.5q-71 58 -71 164q0 84 57 140t141.5 81.5t168.5 25.5q70 0 122.5 -12.5t106 -31.5t67.5 -19q34 0 40 63l61 -8 q-15 -51 -15 -117q0 -82 25 -162l-69 -8q-6 120 -106 173t-234 53q-106 0 -194.5 -46t-88.5 -130q0 -75 52.5 -115.5t134.5 -54.5t200 -19q153 -6 254 -50q100 -43 100 -181q0 -96 -63 -156t-156 -86t-184 -26q-153 0 -303 71q-20 10 -31 10q-17 0 -26 -29.5t-9 -51.5z" />
<glyph unicode="t" d="M152 803v69h143v277h75v-277h538v-69h-538v-496q0 -98 29 -155.5t82 -82t131 -24.5q98 0 182.5 27.5t223.5 83.5l12 -72q-114 -50 -213 -82t-197 -32q-141 0 -233 69.5t-92 220.5v543h-143z" />
<glyph unicode="u" d="M58 803v69h247v-618q0 -97 68.5 -153t177.5 -56q77 0 163 47q87 48 173 146v565h-175v69h250v-802h174v-70h-249v135q-70 -74 -157.5 -119.5t-178.5 -45.5q-97 0 -170 36t-112 103.5t-39 156.5v537h-172z" />
<glyph unicode="v" d="M35 803v69h417v-69h-182l340 -737h8l340 737h-182v69h418v-69h-152l-382 -823h-90l-384 823h-151z" />
<glyph unicode="w" d="M-2 803v69h342v-69h-178l204 -719h4l218 604h53l217 -604h4l205 719h-178v69h342v-69h-84l-237 -823h-89l-205 571h-4l-204 -571h-88l-238 823h-84z" />
<glyph unicode="x" d="M56 0v70h120l387 386l-348 347h-127v69h375v-69h-145l296 -295l298 295h-146v69h374v-69h-126l-348 -347l386 -386h122v-70h-386v70h160l-334 338l-334 -338h160v-70h-384z" />
<glyph unicode="y" d="M-24 803v69h360v-69h-152l354 -684l392 684h-154v69h354v-69h-112l-606 -1055h196v-70h-602v70h322l168 293l-398 762h-122z" />
<glyph unicode="z" d="M217 0v76l695 727h-603v-187h-69v256h774v-67l-705 -735h633v192h70v-262h-795z" />
<glyph unicode="{" d="M387 488v77q80 8 129 46t49 106v301q-1 256 315 256v-70q-104 -5 -171.5 -36.5t-67.5 -141.5v-309q1 -125 -145 -191q74 -35 109.5 -78.5t35.5 -111.5v-312q0 -101 65 -136q64 -36 174 -40v-69q-142 2 -228.5 57t-86.5 197v303q0 134 -178 152z" />
<glyph unicode="|" d="M578 -164v1452h76v-1452h-76z" />
<glyph unicode="}" d="M348 -152q104 5 172 37q68 31 68 141v310q0 124 145 190q-72 34 -108.5 78.5t-36.5 112.5v311q0 102 -65 137t-175 39v70q144 -2 230 -57t86 -197v-303q0 -72 51 -108t127 -44v-77q-78 -6 -128 -45t-50 -107v-301q0 -256 -316 -256v69z" />
<glyph unicode="~" d="M137 416q109 136 242 135q51 0 98 -18.5t116 -56.5t113 -55t90 -17q66 0 122.5 38t111.5 105l64 -53q-152 -166 -298 -166q-54 0 -105.5 18.5t-122 56.5t-109.5 55t-82 17q-99 -1 -177 -111z" />
<glyph unicode="&#xa0;" />
<glyph unicode="&#xa1;" d="M484 768q0 47 38 80q36 32 94 32q49 0 89.5 -31t40.5 -81q0 -46 -38 -80t-92 -34q-58 0 -95 32t-37 82zM542 -322l38 764h69l37 -764h-144z" />
<glyph unicode="&#xa2;" d="M211 580q0 105 47.5 190.5t130.5 138.5t185 64v285h69v-285q98 -5 207 -47q12 -4 20 -4q30 0 46 76l65 -15q-19 -55 -19 -105t32 -155l-66 -17q-16 100 -100 148.5t-193 48.5q-93 0 -172 -39.5t-124.5 -112.5t-45.5 -173q0 -87 40 -162t111.5 -118.5t161.5 -43.5 q96 0 183.5 32.5t185.5 92.5l35 -59q-189 -128 -367 -136v-284h-69v284q-105 6 -188.5 59t-129 141t-45.5 196z" />
<glyph unicode="&#xa3;" d="M186 624v70h191q-53 136 -53 232q0 92 50.5 166.5t133.5 117t174 42.5q106 0 204 -52q99 -54 148 -150l-66 -30q-25 50 -68.5 86t-98.5 56t-115 20q-78 0 -144 -32t-104 -90t-38 -134q0 -54 12 -102t40 -130h451v-70h-432q31 -93 31 -188q0 -67 -17 -137.5t-50 -134.5 t-79 -115l4 -4q104 59 199 59q40 0 74.5 -8.5t78.5 -25t70 -24.5q28 -7 60 -7q85 -1 176 77l43 -52q-100 -94 -217 -94q-38 0 -69 8t-73.5 24t-74.5 24.5t-72 8.5q-68 0 -120.5 -19.5t-118.5 -58.5l-54 69q80 80 125 188t45 220q0 102 -32 190h-214z" />
<glyph unicode="&#xa4;" d="M164 182l172 168q-80 106 -80 228t80 227l-172 168l53 49l168 -166q99 82 229 82q129 0 230 -82l168 166l53 -49l-172 -168q80 -105 80 -227t-80 -228l172 -168l-53 -49l-168 166q-44 -39 -107 -60.5t-123 -21.5q-130 0 -229 82l-168 -166zM338 578q0 -76 37 -142 t101 -104q62 -39 138 -39t139.5 38.5t100.5 103.5t37 143t-37.5 143.5t-102 103t-137.5 37.5q-72 0 -136 -37t-102 -102t-38 -145z" />
<glyph unicode="&#xa5;" d="M68 1147v69h382v-69h-174l344 -451l338 451h-172v69h375v-69h-119l-346 -459h346v-70h-382v-172h382v-69h-382v-307h245v-70h-569v70h248v307h-388v69h388v172h-388v70h349l-355 459h-122z" />
<glyph unicode="&#xa6;" d="M578 -164v551h76v-551h-76zM578 592v696h76v-696h-76z" />
<glyph unicode="&#xa7;" d="M246 622q0 76 53 134t127 74q-42 34 -72 59t-50 56t-20 75q0 85 59 126.5t143 41.5h456v-256h-70v186h-370q-142 0 -142 -92q0 -34 25 -62t78 -69l413 -319q48 -36 78.5 -87.5t30.5 -103.5q0 -80 -55 -131q-56 -52 -134 -62q62 -53 97 -95t35 -97q0 -73 -54 -116 q-54 -44 -126 -44h-486v274h70v-204h389q55 0 93 21t38 67q0 34 -19 62q-19 30 -87 82l-367 284q-78 60 -105.5 104t-27.5 92zM322 626q0 -59 76 -118l329 -258q66 2 124.5 40.5t58.5 100.5q0 63 -107 151l-313 242q-62 -14 -115 -58t-53 -100z" />
<glyph unicode="&#xa8;" d="M406 1114q0 33 22.5 53.5t50.5 20.5q32 0 53 -22t21 -50q0 -34 -22.5 -55t-51.5 -21q-33 0 -53 23t-20 51zM676 1114q0 33 23 53.5t51 20.5q32 0 53 -22t21 -50q0 -34 -23 -55t-51 -21q-33 0 -53.5 23t-20.5 51z" />
<glyph unicode="&#xa9;" d="M0 576q0 168 83 308t224 222t305 82q169 0 311 -82t224 -224t82 -306q0 -168 -83.5 -309t-224.5 -222.5t-307 -81.5q-164 0 -305.5 81.5t-225 222.5t-83.5 309zM82 574q0 -146 71 -271t194 -197.5t267 -72.5q145 0 268 71.5t194 195.5t71 276q0 110 -39.5 208 t-112.5 173.5t-171.5 118t-211.5 42.5q-140 0 -262.5 -72t-195 -197t-72.5 -275zM276 588q0 160 102 253t242 93q58 0 100 -14t95 -46q3 -6 17 -6q10 0 15 7.5t7 18.5q2 12 4 22l45 -8q-14 -77 -14 -103q0 -63 16 -103l-51 -8q0 56 -33.5 95t-85 57t-109.5 18 q-82 0 -146 -36t-99 -99t-35 -139q0 -127 79 -209t216 -82q129 0 231 78l31 -57q-137 -90 -275 -90q-112 0 -191.5 49.5t-120 131.5t-40.5 177z" />
<glyph unicode="&#xaa;" d="M330 530v64h565v-64h-565zM354 848q0 66 59 115t163 49q46 0 132 -8q0 66 -25 93t-85 27q-75 0 -176 -51l-31 63q127 52 199 52q188 0 188 -158v-260h90v-64h-160v58q-92 -72 -178 -72q-68 0 -122 43t-54 113zM424 848q0 -32 34 -62t74 -30q45 0 94.5 32t81.5 80v68 l-118 12q-51 0 -108.5 -24.5t-57.5 -75.5z" />
<glyph unicode="&#xab;" d="M76 528l571 386l47 -58l-416 -328l416 -328l-47 -56zM534 528l572 386l47 -58l-415 -328l415 -328l-47 -56z" />
<glyph unicode="&#xac;" d="M178 590v76h872v-535h-75v459h-797z" />
<glyph unicode="&#xad;" d="M226 488v82h778v-82h-778z" />
<glyph unicode="&#xae;" d="M0 576q0 168 83 308t224 222t305 82q169 0 311 -82t224 -224t82 -306q0 -168 -83.5 -309t-224.5 -222.5t-307 -81.5q-164 0 -305.5 81.5t-225 222.5t-83.5 309zM82 574q0 -146 71 -271t194 -197.5t267 -72.5q145 0 268 71.5t194 195.5t71 276q0 110 -39.5 208 t-112.5 173.5t-171.5 118t-211.5 42.5q-140 0 -262.5 -72t-195 -197t-72.5 -275zM332 262v62h90v552h-90v62h340q90 0 129 -56.5t39 -115.5q0 -72 -41 -124t-109 -66v-4q39 -26 63 -66.5t48.5 -101t36.5 -80.5h84v-62h-138q-13 36 -36.5 100t-59 118.5t-84.5 76.5h-112v-233 h86v-62h-246zM492 618h114q100 0 132 50.5t32 97.5q0 56 -35 83t-75 27h-168v-258z" />
<glyph unicode="&#xaf;" d="M246 1075v82h737v-82h-737z" />
<glyph unicode="&#xb0;" d="M252 914q0 95 47 177.5t130 132.5t183 50q101 0 185.5 -49t132 -132t47.5 -179q0 -95 -47.5 -179t-130.5 -134t-185 -50q-95 0 -178 46.5t-133.5 130.5t-50.5 186zM316 914q0 -84 40.5 -152.5t109.5 -107.5q68 -40 148 -40q84 0 152.5 40.5t107.5 109.5q40 70 40 150 q0 81 -40 148.5t-109 107.5t-153 40q-81 0 -149 -40t-107 -108q-40 -68 -40 -148z" />
<glyph unicode="&#xb1;" d="M178 0v76h872v-76h-872zM178 596v76h398v380h76v-380h398v-76h-398v-381h-76v381h-398z" />
<glyph unicode="&#xb2;" d="M377 510v80l264 240q63 58 97 106q34 46 34 116q0 62 -52 107t-108 45q-32 0 -68 -12.5t-61 -34t-27 -47.5v-45h-69v94q28 34 65.5 60.5t78.5 40.5t81 14q67 0 122.5 -31t87.5 -85t32 -118q0 -54 -27 -111t-125 -145l-227 -204h307v128h70v-198h-475z" />
<glyph unicode="&#xb3;" d="M332 557l30 63q124 -60 206 -59q71 0 122.5 43.5t51.5 107.5q0 74 -50 117t-137 43h-39v70q76 0 131 34t55 112q0 52 -40 84t-101 32q-70 0 -182 -72l-35 56q131 86 215 86q60 0 110.5 -25t79.5 -70t29 -99q0 -106 -78 -162q48 -34 82.5 -73t34.5 -120 q0 -106 -73.5 -169.5t-178.5 -63.5q-103 0 -233 65z" />
<glyph unicode="&#xb4;" d="M496 1018l272 358h192l-382 -358h-82z" />
<glyph unicode="&#xb5;" d="M58 803v69h247v-618q0 -94 66.5 -151.5t179.5 -57.5q170 1 336 193v565h-175v69h250v-802h174v-70h-249v135q-71 -74 -158.5 -119.5t-179.5 -45.5q-166 0 -240 108h-4v-400h-75v1125h-172z" />
<glyph unicode="&#xb6;" d="M116 798q0 64 34.5 145t127 144.5t254.5 63.5h500v-69h-176v-1172h176v-70h-252v1242h-143v-1242h-383v70h307v553h-31q-163 0 -255 57.5t-125.5 133.5t-33.5 144zM198 805q0 -126 85 -199.5t239 -73.5h39v550h-43q-137 0 -228.5 -77t-91.5 -200z" />
<glyph unicode="&#xb8;" d="M510 -266l32 57q30 -25 58 -25q58 0 58 56q0 24 -16 35.5t-38 11.5h-39l21 151h74l-15 -96q34 -4 61 -35t27 -65q0 -56 -32 -94q-33 -39 -81 -39q-56 0 -110 43z" />
<glyph unicode="&#xb9;" d="M366 1161l248 113h44v-694h204v-70h-483v70h203v604l-186 -88z" />
<glyph unicode="&#xba;" d="M332 530v64h565v-64h-565zM350 940q0 74 35 130.5t94.5 87t132.5 30.5q120 0 193 -70t73 -178q0 -111 -75 -179.5t-189 -68.5q-112 0 -188 67.5t-76 180.5zM426 940q0 -86 54 -135t134 -49q87 0 138 52t51 132q0 79 -51 131.5t-140 52.5q-84 0 -135 -52t-51 -132z" />
<glyph unicode="&#xbb;" d="M76 200l416 328l-416 328l47 58l571 -386l-571 -384zM534 200l416 328l-416 328l48 58l571 -386l-571 -384z" />
<glyph unicode="&#xbc;" d="M12 1172l226 102h44v-631h185v-63h-445v63h185v549l-170 -80zM114 -74l1043 1436l59 -41l-1044 -1437zM740 162v74l270 458h94v-468h96v-64h-96v-98h96v-64h-309v64h143v98h-294zM811 226h223v372h-4z" />
<glyph unicode="&#xbd;" d="M0 1172l226 102h44v-631h184v-63h-444v63h184v549l-170 -80zM102 -74l1043 1436l59 -41l-1044 -1437zM817 0v72l256 231q60 66 81 98q22 33 22 93q0 51 -44 90.5t-98 39.5q-51 0 -97 -22q-46 -24 -46 -66v-32h-63v86q82 104 208 104q92 0 154 -63t62 -152 q0 -62 -29 -104.5t-97 -114.5l-221 -196h281v116h64v-180h-433z" />
<glyph unicode="&#xbe;" d="M45 622l29 58q118 -54 186 -54q39 0 75.5 16t59.5 47.5t23 76.5q0 68 -48 106t-126 38h-31v63q71 0 120.5 30.5t49.5 100.5q0 49 -37 77.5t-92 28.5q-59 0 -166 -63l-30 49q120 78 196 78q82 0 140 -50t58 -126q0 -96 -71 -148q107 -61 107 -176q0 -96 -68 -153.5 t-162 -57.5q-93 -1 -213 59zM74 -74l1042 1436l60 -41l-1045 -1437zM698 162v74l270 458h95v-468h96v-64h-96v-98h96v-64h-309v64h144v98h-296zM770 226h224v372h-5z" />
<glyph unicode="&#xbf;" d="M236 6q0 144 101 223t277 121v127h76v-178q-162 -33 -267 -98t-105 -197q0 -102 76 -176t232 -74q130 0 248 52v130h76v-188q-108 -38 -175 -54t-144 -16q-115 0 -205 42t-140 117t-50 169zM522 768q0 46 38 79t94 33q51 0 90.5 -30t39.5 -82q0 -47 -37 -80.5t-93 -33.5 t-94 32.5t-38 81.5z" />
<glyph unicode="&#xc0;" d="M20 0v70h105l420 1012h-309v69h426l442 -1081h104v-70h-401v70h219l-129 313h-569l-134 -313h226v-70h-400zM247 1624h193l272 -358h-82zM354 452h518l-258 630h-4z" />
<glyph unicode="&#xc1;" d="M20 0v70h105l420 1012h-309v69h426l442 -1081h104v-70h-401v70h219l-129 313h-569l-134 -313h226v-70h-400zM354 452h518l-258 630h-4zM539 1266l272 358h192l-382 -358h-82z" />
<glyph unicode="&#xc2;" d="M20 0v70h105l420 1012h-309v69h426l442 -1081h104v-70h-401v70h219l-129 313h-569l-134 -313h226v-70h-400zM192 1262l284 324h152l285 -324l-51 -39l-310 281l-309 -281zM354 452h518l-258 630h-4z" />
<glyph unicode="&#xc3;" d="M20 0v70h105l420 1012h-309v69h426l442 -1081h104v-70h-401v70h219l-129 313h-569l-134 -313h226v-70h-400zM223 1319q26 75 85 126.5t132 51.5q54 0 95 -18.5t89 -53.5t81 -52t77 -17q52 0 94 40t60 95l70 -21q-26 -82 -90 -133t-146 -51q-46 0 -87 18.5t-89.5 53 t-83 52.5t-70.5 18q-50 0 -89.5 -39t-59.5 -93zM354 452h518l-258 630h-4z" />
<glyph unicode="&#xc4;" d="M20 0v70h105l420 1012h-309v69h426l442 -1081h104v-70h-401v70h219l-129 313h-569l-134 -313h226v-70h-400zM342 1392q0 33 22.5 53.5t50.5 20.5q32 0 53 -22t21 -50q0 -34 -22.5 -55t-51.5 -21q-33 0 -53 23t-20 51zM354 452h518l-258 630h-4zM612 1392q0 33 23 53.5 t51 20.5q32 0 53 -22t21 -50q0 -34 -23 -55t-51 -21q-33 0 -53.5 23t-20.5 51z" />
<glyph unicode="&#xc5;" d="M20 0v70h105l420 1012h-309v69h426l442 -1081h104v-70h-401v70h219l-129 313h-569l-134 -313h226v-70h-400zM354 452h518l-258 630h-4zM437 1394q0 60 43.5 104t101.5 44q62 0 106 -43t44 -103q0 -59 -41 -104t-107 -45q-64 0 -106 44q-41 43 -41 103zM500 1394 q0 -39 27 -61.5t57 -22.5q40 0 62 28t22 58q0 32 -24 57t-62 25q-37 0 -60 -26q-22 -28 -22 -58z" />
<glyph unicode="&#xc6;" d="M20 0v70h107l415 1012h-230v69h772l6 -353h-68l-18 284h-314v-451h172v151h70v-372h-70v151h-172v-491h342l12 286h68v-356h-498v383h-286l-130 -313h195v-70h-373zM354 452h260v630h-4z" />
<glyph unicode="&#xc7;" d="M98 586q0 197 82 333t208.5 202.5t256.5 66.5q99 0 164 -25t149 -81q10 -8 27 -9q32 0 39 84l66 -14q-20 -99 -21 -179q1 -94 23 -178l-68 -14q-8 159 -112 252.5t-265 93.5q-90 0 -173 -35t-147.5 -102.5t-102.5 -167.5t-38 -223q0 -144 55 -270.5t160 -203.5t246 -77 q193 0 395 141l48 -61q-214 -156 -441 -156l-6 -35q34 -4 61 -35t27 -65q0 -56 -32 -94q-33 -39 -81 -39q-56 0 -110 43l32 57q30 -25 58 -25q58 0 58 56q0 24 -16 35.5t-38 11.5h-39l15 94q-112 16 -201 68.5t-152 136.5t-95 189t-32 225z" />
<glyph unicode="&#xc8;" d="M123 0v70h180v1012h-180v69h971l8 -355h-68l-20 286h-635v-451h371v151h69v-372h-69v151h-371v-491h653l12 286h68v-356h-989zM309 1624h193l272 -358h-82z" />
<glyph unicode="&#xc9;" d="M123 0v70h180v1012h-180v69h971l8 -355h-68l-20 286h-635v-451h371v151h69v-372h-69v151h-371v-491h653l12 286h68v-356h-989zM558 1266l272 358h192l-382 -358h-82z" />
<glyph unicode="&#xca;" d="M123 0v70h180v1012h-180v69h971l8 -355h-68l-20 286h-635v-451h371v151h69v-372h-69v151h-371v-491h653l12 286h68v-356h-989zM254 1262l284 324h152l285 -324l-51 -39l-310 281l-309 -281z" />
<glyph unicode="&#xcb;" d="M123 0v70h180v1012h-180v69h971l8 -355h-68l-20 286h-635v-451h371v151h69v-372h-69v151h-371v-491h653l12 286h68v-356h-989zM404 1392q0 33 22.5 53.5t50.5 20.5q32 0 53 -22t21 -50q0 -34 -22.5 -55t-51.5 -21q-33 0 -53 23t-20 51zM674 1392q0 33 23 53.5t51 20.5 q32 0 53 -22t21 -50q0 -34 -23 -55t-51 -21q-33 0 -53.5 23t-20.5 51z" />
<glyph unicode="&#xcc;" d="M211 0v70h367v1012h-367v69h807v-69h-364v-1012h364v-70h-807zM309 1624h193l272 -358h-82z" />
<glyph unicode="&#xcd;" d="M211 0v70h367v1012h-367v69h807v-69h-364v-1012h364v-70h-807zM498 1266l272 358h192l-382 -358h-82z" />
<glyph unicode="&#xce;" d="M211 0v70h367v1012h-367v69h807v-69h-364v-1012h364v-70h-807zM254 1262l284 324h152l285 -324l-51 -39l-310 281l-309 -281z" />
<glyph unicode="&#xcf;" d="M211 0v70h367v1012h-367v69h807v-69h-364v-1012h364v-70h-807zM404 1392q0 33 22.5 53.5t50.5 20.5q32 0 53 -22t21 -50q0 -34 -22.5 -55t-51.5 -21q-33 0 -53 23t-20 51zM674 1392q0 33 23 53.5t51 20.5q32 0 53 -22t21 -50q0 -34 -23 -55t-51 -21q-33 0 -53.5 23 t-20.5 51z" />
<glyph unicode="&#xd0;" d="M62 561v70h206v451h-166v69h590q91 0 174.5 -32t150.5 -99.5t105.5 -173.5t38.5 -252q0 -169 -55.5 -304.5t-167.5 -212.5t-274 -77h-562v70h166v491h-206zM344 70h289q147 0 246 64.5t146.5 182t47.5 275.5q0 138 -38.5 235.5t-97 152t-125 78.5t-126.5 24h-342v-451 h328v-70h-328v-491z" />
<glyph unicode="&#xd1;" d="M28 0v70h175v1012h-175v69h298l642 -1085h5v1016h-225v69h452v-69h-152v-1108h-108l-658 1110h-4v-1014h226v-70h-476zM223 1319q26 75 85 126.5t132 51.5q54 0 95 -18.5t89 -53.5t81 -52t77 -17q52 0 94 40t60 95l70 -21q-26 -82 -90 -133t-146 -51q-46 0 -87 18.5 t-89.5 53t-83 52.5t-70.5 18q-50 0 -89.5 -39t-59.5 -93z" />
<glyph unicode="&#xd2;" d="M88 574q0 117 34 227t100.5 197.5t166 138.5t223.5 51q126 0 226.5 -51t167 -137t100.5 -196t34 -228q0 -152 -58.5 -293t-178 -230.5t-291.5 -89.5q-158 0 -278 84t-183 224.5t-63 302.5zM176 574q0 -136 51.5 -261t150 -202.5t234.5 -77.5q140 0 240 78.5t150 204.5 t50 260q0 133 -50 258.5t-150 204.5t-240 79q-138 0 -237 -80t-149 -206t-50 -258zM309 1624h193l272 -358h-82z" />
<glyph unicode="&#xd3;" d="M88 574q0 117 34 227t100.5 197.5t166 138.5t223.5 51q126 0 226.5 -51t167 -137t100.5 -196t34 -228q0 -152 -58.5 -293t-178 -230.5t-291.5 -89.5q-158 0 -278 84t-183 224.5t-63 302.5zM176 574q0 -136 51.5 -261t150 -202.5t234.5 -77.5q140 0 240 78.5t150 204.5 t50 260q0 133 -50 258.5t-150 204.5t-240 79q-138 0 -237 -80t-149 -206t-50 -258zM496 1266l272 358h192l-382 -358h-82z" />
<glyph unicode="&#xd4;" d="M88 574q0 117 34 227t100.5 197.5t166 138.5t223.5 51q126 0 226.5 -51t167 -137t100.5 -196t34 -228q0 -152 -58.5 -293t-178 -230.5t-291.5 -89.5q-158 0 -278 84t-183 224.5t-63 302.5zM176 574q0 -136 51.5 -261t150 -202.5t234.5 -77.5q140 0 240 78.5t150 204.5 t50 260q0 133 -50 258.5t-150 204.5t-240 79q-138 0 -237 -80t-149 -206t-50 -258zM254 1262l284 324h152l285 -324l-51 -39l-310 281l-309 -281z" />
<glyph unicode="&#xd5;" d="M88 574q0 117 34 227t100.5 197.5t166 138.5t223.5 51q126 0 226.5 -51t167 -137t100.5 -196t34 -228q0 -152 -58.5 -293t-178 -230.5t-291.5 -89.5q-158 0 -278 84t-183 224.5t-63 302.5zM176 574q0 -136 51.5 -261t150 -202.5t234.5 -77.5q140 0 240 78.5t150 204.5 t50 260q0 133 -50 258.5t-150 204.5t-240 79q-138 0 -237 -80t-149 -206t-50 -258zM223 1319q26 75 85 126.5t132 51.5q54 0 95 -18.5t89 -53.5t81 -52t77 -17q52 0 94 40t60 95l70 -21q-26 -82 -90 -133t-146 -51q-46 0 -87 18.5t-89.5 53t-83 52.5t-70.5 18 q-50 0 -89.5 -39t-59.5 -93z" />
<glyph unicode="&#xd6;" d="M88 574q0 117 34 227t100.5 197.5t166 138.5t223.5 51q126 0 226.5 -51t167 -137t100.5 -196t34 -228q0 -152 -58.5 -293t-178 -230.5t-291.5 -89.5q-158 0 -278 84t-183 224.5t-63 302.5zM176 574q0 -136 51.5 -261t150 -202.5t234.5 -77.5q140 0 240 78.5t150 204.5 t50 260q0 133 -50 258.5t-150 204.5t-240 79q-138 0 -237 -80t-149 -206t-50 -258zM404 1392q0 33 22.5 53.5t50.5 20.5q32 0 53 -22t21 -50q0 -34 -22.5 -55t-51.5 -21q-33 0 -53 23t-20 51zM674 1392q0 33 23 53.5t51 20.5q32 0 53 -22t21 -50q0 -34 -23 -55t-51 -21 q-33 0 -53.5 23t-20.5 51z" />
<glyph unicode="&#xd7;" d="M178 53l383 383l-383 383l54 53l382 -382l384 382l54 -53l-384 -383l384 -385l-54 -51l-384 383l-382 -383z" />
<glyph unicode="&#xd8;" d="M88 572q0 164 63 306t183 226t278 84q130 0 228 -52l70 152l63 -28l-74 -160q78 -54 132.5 -138t81.5 -184t27 -204q0 -158 -62 -299t-181 -226.5t-285 -85.5q-124 0 -212 47l-80 -174l-64 29l82 180q-84 56 -140 142.5t-83 185.5t-27 199zM176 572q0 -131 50 -254.5 t144 -201.5l439 953q-95 49 -197 49q-140 0 -238.5 -80t-148 -206t-49.5 -260zM430 78q72 -45 182 -45q140 0 240 78.5t150 203.5t50 259t-47 255t-139 201z" />
<glyph unicode="&#xd9;" d="M49 1082v69h437v-69h-210v-660q0 -194 84 -288.5t252 -94.5q192 0 266 105t74 292v646h-208v69h436v-69h-152v-695q0 -132 -48.5 -227.5t-141.5 -145.5q-94 -51 -224 -51q-122 0 -215 46.5t-146 142.5t-53 237v693h-151zM247 1624h193l272 -358h-82z" />
<glyph unicode="&#xda;" d="M49 1082v69h437v-69h-210v-660q0 -194 84 -288.5t252 -94.5q192 0 266 105t74 292v646h-208v69h436v-69h-152v-695q0 -132 -48.5 -227.5t-141.5 -145.5q-94 -51 -224 -51q-122 0 -215 46.5t-146 142.5t-53 237v693h-151zM558 1266l272 358h192l-382 -358h-82z" />
<glyph unicode="&#xdb;" d="M49 1082v69h437v-69h-210v-660q0 -194 84 -288.5t252 -94.5q192 0 266 105t74 292v646h-208v69h436v-69h-152v-695q0 -132 -48.5 -227.5t-141.5 -145.5q-94 -51 -224 -51q-122 0 -215 46.5t-146 142.5t-53 237v693h-151zM254 1262l284 324h152l285 -324l-51 -39l-310 281 l-309 -281z" />
<glyph unicode="&#xdc;" d="M49 1082v69h437v-69h-210v-660q0 -194 84 -288.5t252 -94.5q192 0 266 105t74 292v646h-208v69h436v-69h-152v-695q0 -132 -48.5 -227.5t-141.5 -145.5q-94 -51 -224 -51q-122 0 -215 46.5t-146 142.5t-53 237v693h-151zM404 1392q0 33 22.5 53.5t50.5 20.5q32 0 53 -22 t21 -50q0 -34 -22.5 -55t-51.5 -21q-33 0 -53 23t-20 51zM674 1392q0 33 23 53.5t51 20.5q32 0 53 -22t21 -50q0 -34 -23 -55t-51 -21q-33 0 -53.5 23t-20.5 51z" />
<glyph unicode="&#xdd;" d="M64 1082v69h378v-69h-172l344 -564l344 564h-172v69h380v-69h-124l-390 -640v-372h253v-70h-583v70h254v372l-390 640h-122zM558 1266l272 358h192l-382 -358h-82z" />
<glyph unicode="&#xde;" d="M176 0v70h176v1012h-176v69h428v-69h-176v-136h240q158 0 252 -55.5t131 -127t37 -126.5q0 -50 -28 -116.5t-122 -123.5t-266 -57h-244v-270h307v-70h-559zM428 410h252q154 0 240 59t86 170q0 69 -45.5 124t-120 84t-158.5 29h-254v-466z" />
<glyph unicode="&#xdf;" d="M112 0v70h164v704h-157v70h157v68q0 122 11 190t47 109.5t105.5 59t193.5 17.5q190 0 286.5 -44t96.5 -175q0 -138 -211 -219q-88 -35 -124 -63.5t-36 -84.5q0 -74 62.5 -109.5t201.5 -82t210 -98.5t71 -150q0 -104 -63 -170t-158 -94t-195 -28q-170 0 -318 96l48 59 q112 -80 272 -80q126 0 229 50.5t103 164.5q0 74 -65 111t-202 84t-207.5 98t-70.5 147q0 81 48.5 124.5t141.5 82.5t137 71t44 97q0 56 -30 85.5t-90 40.5t-165 11q-104 0 -158 -7t-84.5 -32t-42.5 -77t-12 -148v-948h-240z" />
<glyph unicode="&#xe0;" d="M123 252q0 70 36 127.5t95.5 97t127 59t130.5 19.5q58 0 210 -13q150 -14 148 -14v78q0 228 -274 228q-147 0 -346 -84l-29 65q210 88 379 88q151 0 248.5 -66.5t97.5 -203.5v-563h184v-70h-260v172q-84 -86 -192 -144t-224 -58q-88 0 -163 35t-121.5 99t-46.5 148z M211 248q0 -86 74.5 -144.5t170.5 -58.5t208 58q112 57 206 169v184q-245 30 -309 30q-140 0 -218.5 -45t-105 -99t-26.5 -94zM309 1378h193l272 -358h-82z" />
<glyph unicode="&#xe1;" d="M123 252q0 70 36 127.5t95.5 97t127 59t130.5 19.5q58 0 210 -13q150 -14 148 -14v78q0 228 -274 228q-147 0 -346 -84l-29 65q210 88 379 88q151 0 248.5 -66.5t97.5 -203.5v-563h184v-70h-260v172q-84 -86 -192 -144t-224 -58q-88 0 -163 35t-121.5 99t-46.5 148z M211 248q0 -86 74.5 -144.5t170.5 -58.5t208 58q112 57 206 169v184q-245 30 -309 30q-140 0 -218.5 -45t-105 -99t-26.5 -94zM498 1020l272 358h192l-382 -358h-82z" />
<glyph unicode="&#xe2;" d="M123 252q0 70 36 127.5t95.5 97t127 59t130.5 19.5q58 0 210 -13q150 -14 148 -14v78q0 228 -274 228q-147 0 -346 -84l-29 65q210 88 379 88q151 0 248.5 -66.5t97.5 -203.5v-563h184v-70h-260v172q-84 -86 -192 -144t-224 -58q-88 0 -163 35t-121.5 99t-46.5 148z M211 248q0 -86 74.5 -144.5t170.5 -58.5t208 58q112 57 206 169v184q-245 30 -309 30q-140 0 -218.5 -45t-105 -99t-26.5 -94zM254 1016l284 324h152l285 -324l-51 -39l-310 281l-309 -281z" />
<glyph unicode="&#xe3;" d="M123 252q0 70 36 127.5t95.5 97t127 59t130.5 19.5q58 0 210 -13q150 -14 148 -14v78q0 228 -274 228q-147 0 -346 -84l-29 65q210 88 379 88q151 0 248.5 -66.5t97.5 -203.5v-563h184v-70h-260v172q-84 -86 -192 -144t-224 -58q-88 0 -163 35t-121.5 99t-46.5 148z M211 248q0 -86 74.5 -144.5t170.5 -58.5t208 58q112 57 206 169v184q-245 30 -309 30q-140 0 -218.5 -45t-105 -99t-26.5 -94zM223 1063q26 75 85 126.5t132 51.5q54 0 95 -18.5t89 -53.5t81 -52t77 -17q52 0 94 40t60 95l70 -21q-26 -82 -90 -133t-146 -51q-46 0 -87 18.5 t-89.5 53t-83 52.5t-70.5 18q-50 0 -89.5 -39t-59.5 -93z" />
<glyph unicode="&#xe4;" d="M123 252q0 70 36 127.5t95.5 97t127 59t130.5 19.5q58 0 210 -13q150 -14 148 -14v78q0 228 -274 228q-147 0 -346 -84l-29 65q210 88 379 88q151 0 248.5 -66.5t97.5 -203.5v-563h184v-70h-260v172q-84 -86 -192 -144t-224 -58q-88 0 -163 35t-121.5 99t-46.5 148z M211 248q0 -86 74.5 -144.5t170.5 -58.5t208 58q112 57 206 169v184q-245 30 -309 30q-140 0 -218.5 -45t-105 -99t-26.5 -94zM406 1116q0 33 22.5 53.5t50.5 20.5q32 0 53 -22t21 -50q0 -34 -22.5 -55t-51.5 -21q-33 0 -53 23t-20 51zM676 1116q0 33 23 53.5t51 20.5 q32 0 53 -22t21 -50q0 -34 -23 -55t-51 -21q-33 0 -53.5 23t-20.5 51z" />
<glyph unicode="&#xe5;" d="M123 252q0 70 36 127.5t95.5 97t127 59t130.5 19.5q58 0 210 -13q150 -14 148 -14v78q0 228 -274 228q-147 0 -346 -84l-29 65q210 88 379 88q151 0 248.5 -66.5t97.5 -203.5v-563h184v-70h-260v172q-84 -86 -192 -144t-224 -58q-88 0 -163 35t-121.5 99t-46.5 148z M211 248q0 -86 74.5 -144.5t170.5 -58.5t208 58q112 57 206 169v184q-245 30 -309 30q-140 0 -218.5 -45t-105 -99t-26.5 -94zM467 1138q0 60 43.5 104t101.5 44q62 0 106 -43t44 -103q0 -59 -41 -104t-107 -45q-64 0 -106 44q-41 43 -41 103zM530 1138q0 -39 27 -61.5 t57 -22.5q40 0 62 28t22 58q0 32 -24 57t-62 25q-37 0 -60 -26q-22 -28 -22 -58z" />
<glyph unicode="&#xe6;" d="M53 230q0 62 33 131.5t105.5 118t183.5 48.5q70 0 186 -22v118q0 93 -34.5 151.5t-135.5 58.5q-93 0 -239 -56l-21 66q151 59 265 59q99 0 147.5 -42t72.5 -134q118 176 256 176q71 0 124.5 -38t88 -100t50.5 -132q16 -69 16 -135q0 -12 -2 -38t-2 -38h-510 q0 -153 60.5 -268t203.5 -115q81 0 225 41l27 -62q-140 -48 -260 -48q-106 0 -179.5 62t-105.5 150q-60 -86 -148 -149t-174 -63q-102 0 -168 78q-65 78 -65 182zM135 228q0 -74 46.5 -131.5t119.5 -57.5q62 0 140 61.5t120 125.5v210q-65 23 -161 23q-76 0 -137 -27.5 t-94.5 -79.5t-33.5 -124zM637 492h438q0 76 -18.5 153t-64.5 133t-124 56q-58 0 -110 -42t-85 -114t-36 -154v-32z" />
<glyph unicode="&#xe7;" d="M150 430q0 138 66 246t178 167.5t245 59.5q75 0 135 -16.5t111 -38.5t59 -22q12 0 20 8t11 17t7 27t5 25l67 -12q-20 -101 -20 -147q0 -44 20 -158l-67 -10q-8 126 -98.5 189t-232.5 63q-126 0 -221 -49.5t-146 -138t-51 -202.5q0 -101 46 -190.5t136 -146t213 -56.5 q112 0 187 33q76 32 208 116l41 -59q-108 -80 -220.5 -122.5t-196.5 -42.5l-7 -42q34 -4 61 -35t27 -65q0 -56 -32 -94q-33 -39 -81 -39q-56 0 -110 43l32 57q30 -25 58 -25q58 0 58 56q0 24 -16 35.5t-38 11.5h-39l15 99q-121 17 -218.5 77.5t-154.5 159.5t-57 221z" />
<glyph unicode="&#xe8;" d="M150 430q0 146 69 253.5t182.5 163.5t237.5 56q144 0 247.5 -61.5t156.5 -155.5t53 -188q0 -24 -4 -78h-854q6 -116 62 -201t147 -129.5t196 -44.5q102 0 206.5 31.5t223.5 89.5l35 -66q-254 -130 -465 -130q-98 0 -188.5 34t-158.5 96t-107 147.5t-39 182.5zM234 490 h780q0 94 -46.5 171t-133.5 122t-201 45q-100 0 -186 -39.5t-142.5 -116t-70.5 -182.5zM309 1378h193l272 -358h-82z" />
<glyph unicode="&#xe9;" d="M150 430q0 146 69 253.5t182.5 163.5t237.5 56q144 0 247.5 -61.5t156.5 -155.5t53 -188q0 -24 -4 -78h-854q6 -116 62 -201t147 -129.5t196 -44.5q102 0 206.5 31.5t223.5 89.5l35 -66q-254 -130 -465 -130q-98 0 -188.5 34t-158.5 96t-107 147.5t-39 182.5zM234 490 h780q0 94 -46.5 171t-133.5 122t-201 45q-100 0 -186 -39.5t-142.5 -116t-70.5 -182.5zM498 1020l272 358h192l-382 -358h-82z" />
<glyph unicode="&#xea;" d="M150 430q0 146 69 253.5t182.5 163.5t237.5 56q144 0 247.5 -61.5t156.5 -155.5t53 -188q0 -24 -4 -78h-854q6 -116 62 -201t147 -129.5t196 -44.5q102 0 206.5 31.5t223.5 89.5l35 -66q-254 -130 -465 -130q-98 0 -188.5 34t-158.5 96t-107 147.5t-39 182.5zM234 490 h780q0 94 -46.5 171t-133.5 122t-201 45q-100 0 -186 -39.5t-142.5 -116t-70.5 -182.5zM256 1016l284 324h152l285 -324l-51 -39l-310 281l-309 -281z" />
<glyph unicode="&#xeb;" d="M150 430q0 146 69 253.5t182.5 163.5t237.5 56q144 0 247.5 -61.5t156.5 -155.5t53 -188q0 -24 -4 -78h-854q6 -116 62 -201t147 -129.5t196 -44.5q102 0 206.5 31.5t223.5 89.5l35 -66q-254 -130 -465 -130q-98 0 -188.5 34t-158.5 96t-107 147.5t-39 182.5zM234 490 h780q0 94 -46.5 171t-133.5 122t-201 45q-100 0 -186 -39.5t-142.5 -116t-70.5 -182.5zM406 1116q0 33 22.5 53.5t50.5 20.5q32 0 53 -22t21 -50q0 -34 -22.5 -55t-51.5 -21q-33 0 -53 23t-20 51zM676 1116q0 33 23 53.5t51 20.5q32 0 53 -22t21 -50q0 -34 -23 -55t-51 -21 q-33 0 -53.5 23t-20.5 51z" />
<glyph unicode="&#xec;" d="M209 0v70h369v733h-310v69h386v-802h366v-70h-811zM247 1378h193l272 -358h-82z" />
<glyph unicode="&#xed;" d="M209 0v70h369v733h-310v69h386v-802h366v-70h-811zM498 1020l272 358h192l-382 -358h-82z" />
<glyph unicode="&#xee;" d="M192 1016l284 324h152l285 -324l-51 -39l-310 281l-309 -281zM209 0v70h369v733h-310v69h386v-802h366v-70h-811z" />
<glyph unicode="&#xef;" d="M209 0v70h369v733h-310v69h386v-802h366v-70h-811zM342 1114q0 33 22.5 53.5t50.5 20.5q32 0 53 -22t21 -50q0 -34 -22.5 -55t-51.5 -21q-33 0 -53 23t-20 51zM612 1114q0 33 23 53.5t51 20.5q32 0 53 -22t21 -50q0 -34 -23 -55t-51 -21q-33 0 -53.5 23t-20.5 51z" />
<glyph unicode="&#xf0;" d="M127 432q0 140 67.5 247.5t179.5 165.5t238 58q106 0 195 -38.5t137 -110.5l6 2q-33 64 -68.5 116t-78.5 101t-107 109l-309 -126l-43 62l287 118q-106 82 -170 116l79 36q78 -44 175 -118l270 110q4 -4 20.5 -28t24.5 -36l-250 -100q135 -122 228.5 -298t93.5 -378 q0 -145 -71 -252t-183 -162.5t-234 -55.5q-91 0 -179.5 32.5t-157.5 94t-109.5 147.5t-40.5 188zM215 430q0 -108 53.5 -196t144.5 -138.5t201 -50.5q111 0 202.5 51t144.5 139.5t53 196.5q0 110 -51.5 201t-143 143t-207.5 52q-110 0 -201 -50.5t-143.5 -141t-52.5 -206.5z " />
<glyph unicode="&#xf1;" d="M68 0v70h174v733h-174v69h250v-141q194 172 386 172q96 0 160 -32.5t95.5 -94.5t31.5 -152v-554h173v-70h-422v70h174v510q0 120 -42 184t-164 64q-106 0 -196 -47t-196 -134v-577h174v-70h-424zM223 1063q26 75 85 126.5t132 51.5q54 0 95 -18.5t89 -53.5t81 -52t77 -17 q52 0 94 40t60 95l70 -21q-26 -82 -90 -133t-146 -51q-46 0 -87 18.5t-89.5 53t-83 52.5t-70.5 18q-50 0 -89.5 -39t-59.5 -93z" />
<glyph unicode="&#xf2;" d="M127 432q0 141 67.5 248.5t179 165t238.5 57.5q134 0 246.5 -59.5t178 -167.5t65.5 -244q0 -100 -39.5 -186t-108 -148t-156.5 -95q-90 -33 -184 -33q-93 0 -181.5 33t-157 95t-108.5 148t-40 186zM215 430q0 -108 54.5 -197t146.5 -138.5t198 -49.5q80 0 154 29t129 81 t86 123.5t31 153.5q0 110 -51.5 201t-143 143t-207.5 52q-111 0 -202.5 -51.5t-143 -142t-51.5 -204.5zM309 1378h193l272 -358h-82z" />
<glyph unicode="&#xf3;" d="M127 432q0 141 67.5 248.5t179 165t238.5 57.5q134 0 246.5 -59.5t178 -167.5t65.5 -244q0 -100 -39.5 -186t-108 -148t-156.5 -95q-90 -33 -184 -33q-93 0 -181.5 33t-157 95t-108.5 148t-40 186zM215 430q0 -108 54.5 -197t146.5 -138.5t198 -49.5q80 0 154 29t129 81 t86 123.5t31 153.5q0 110 -51.5 201t-143 143t-207.5 52q-111 0 -202.5 -51.5t-143 -142t-51.5 -204.5zM498 1020l272 358h192l-382 -358h-82z" />
<glyph unicode="&#xf4;" d="M127 432q0 141 67.5 248.5t179 165t238.5 57.5q134 0 246.5 -59.5t178 -167.5t65.5 -244q0 -100 -39.5 -186t-108 -148t-156.5 -95q-90 -33 -184 -33q-93 0 -181.5 33t-157 95t-108.5 148t-40 186zM215 430q0 -108 54.5 -197t146.5 -138.5t198 -49.5q80 0 154 29t129 81 t86 123.5t31 153.5q0 110 -51.5 201t-143 143t-207.5 52q-111 0 -202.5 -51.5t-143 -142t-51.5 -204.5zM256 1016l284 324h152l285 -324l-51 -39l-310 281l-309 -281z" />
<glyph unicode="&#xf5;" d="M127 432q0 141 67.5 248.5t179 165t238.5 57.5q134 0 246.5 -59.5t178 -167.5t65.5 -244q0 -100 -39.5 -186t-108 -148t-156.5 -95q-90 -33 -184 -33q-93 0 -181.5 33t-157 95t-108.5 148t-40 186zM215 430q0 -108 54.5 -197t146.5 -138.5t198 -49.5q80 0 154 29t129 81 t86 123.5t31 153.5q0 110 -51.5 201t-143 143t-207.5 52q-111 0 -202.5 -51.5t-143 -142t-51.5 -204.5zM225 1063q26 75 85 126.5t132 51.5q54 0 95 -18.5t89 -53.5t81 -52t77 -17q52 0 94 40t60 95l70 -21q-26 -82 -90 -133t-146 -51q-46 0 -87 18.5t-89.5 53t-83 52.5 t-70.5 18q-50 0 -89.5 -39t-59.5 -93z" />
<glyph unicode="&#xf6;" d="M127 432q0 141 67.5 248.5t179 165t238.5 57.5q134 0 246.5 -59.5t178 -167.5t65.5 -244q0 -100 -39.5 -186t-108 -148t-156.5 -95q-90 -33 -184 -33q-93 0 -181.5 33t-157 95t-108.5 148t-40 186zM215 430q0 -108 54.5 -197t146.5 -138.5t198 -49.5q80 0 154 29t129 81 t86 123.5t31 153.5q0 110 -51.5 201t-143 143t-207.5 52q-111 0 -202.5 -51.5t-143 -142t-51.5 -204.5zM406 1116q0 33 22.5 53.5t50.5 20.5q32 0 53 -22t21 -50q0 -34 -22.5 -55t-51.5 -21q-33 0 -53 23t-20 51zM676 1116q0 33 23 53.5t51 20.5q32 0 53 -22t21 -50 q0 -34 -23 -55t-51 -21q-33 0 -53.5 23t-20.5 51z" />
<glyph unicode="&#xf7;" d="M178 400v75h872v-75h-872zM534 82q0 30 23 55t55 25q36 0 59 -23.5t23 -54.5q0 -32 -22 -57q-24 -25 -58 -25q-30 0 -55 24t-25 56zM534 792q0 30 23 55t55 25q36 0 59 -23t23 -55t-22 -57q-24 -25 -58 -25q-30 0 -55 24t-25 56z" />
<glyph unicode="&#xf8;" d="M127 432q0 140 67.5 247t179.5 165.5t240 58.5q94 -1 164 -27l74 160l64 -28l-72 -158q122 -59 190 -167.5t68 -250.5q0 -136 -69.5 -242t-181.5 -163q-113 -57 -235 -57q-82 0 -164 28l-73 -162l-63 29l73 159q-128 61 -195 169.5t-67 238.5zM215 430 q0 -109 54.5 -196.5t150.5 -139.5l326 713q-58 21 -132 21q-110 0 -202 -50t-144.5 -141t-52.5 -207zM486 68q56 -22 128 -23q107 0 199 49.5t146.5 138.5t54.5 199q0 113 -53.5 205.5t-149.5 140.5z" />
<glyph unicode="&#xf9;" d="M58 803v69h247v-618q0 -97 68.5 -153t177.5 -56q77 0 163 47q87 48 173 146v565h-175v69h250v-802h174v-70h-249v135q-70 -74 -157.5 -119.5t-178.5 -45.5q-97 0 -170 36t-112 103.5t-39 156.5v537h-172zM249 1378h193l272 -358h-82z" />
<glyph unicode="&#xfa;" d="M58 803v69h247v-618q0 -97 68.5 -153t177.5 -56q77 0 163 47q87 48 173 146v565h-175v69h250v-802h174v-70h-249v135q-70 -74 -157.5 -119.5t-178.5 -45.5q-97 0 -170 36t-112 103.5t-39 156.5v537h-172zM478 1020l272 358h192l-382 -358h-82z" />
<glyph unicode="&#xfb;" d="M58 803v69h247v-618q0 -97 68.5 -153t177.5 -56q77 0 163 47q87 48 173 146v565h-175v69h250v-802h174v-70h-249v135q-70 -74 -157.5 -119.5t-178.5 -45.5q-97 0 -170 36t-112 103.5t-39 156.5v537h-172zM236 1016l284 324h152l285 -324l-51 -39l-310 281l-309 -281z" />
<glyph unicode="&#xfc;" d="M58 803v69h247v-618q0 -97 68.5 -153t177.5 -56q77 0 163 47q87 48 173 146v565h-175v69h250v-802h174v-70h-249v135q-70 -74 -157.5 -119.5t-178.5 -45.5q-97 0 -170 36t-112 103.5t-39 156.5v537h-172zM406 1114q0 33 22.5 53.5t50.5 20.5q32 0 53 -22t21 -50 q0 -34 -22.5 -55t-51.5 -21q-33 0 -53 23t-20 51zM676 1114q0 33 23 53.5t51 20.5q32 0 53 -22t21 -50q0 -34 -23 -55t-51 -21q-33 0 -53.5 23t-20.5 51z" />
<glyph unicode="&#xfd;" d="M-24 803v69h360v-69h-152l354 -684l392 684h-154v69h354v-69h-112l-606 -1055h196v-70h-602v70h322l168 293l-398 762h-122zM457 1020l272 358h192l-382 -358h-82z" />
<glyph unicode="&#xfe;" d="M2 1266l280 22v-598h4q134 213 378 213q132 0 237 -63.5t163 -171.5t58 -236q0 -118 -62 -226t-166 -172t-222 -64q-116 0 -221 61t-165 165h-4v-448h314v-70h-563v70h174v1462l-199 -14zM274 448q0 -111 53.5 -203.5t143 -146t189.5 -53.5q102 0 188 52.5t136 141 t50 193.5q0 80 -25 152.5t-72.5 127t-115 85.5t-153.5 31q-106 0 -196 -48t-144 -135t-54 -197z" />
<glyph unicode="&#xff;" d="M-24 803v69h360v-69h-152l354 -684l392 684h-154v69h354v-69h-112l-606 -1055h196v-70h-602v70h322l168 293l-398 762h-122zM384 1114q0 33 22.5 53.5t50.5 20.5q32 0 53 -22t21 -50q0 -34 -22.5 -55t-51.5 -21q-33 0 -53 23t-20 51zM654 1114q0 33 23 53.5t51 20.5 q32 0 53 -22t21 -50q0 -34 -23 -55t-51 -21q-33 0 -53.5 23t-20.5 51z" />
<glyph unicode="&#x152;" d="M28 592q0 184 64 310t173.5 187.5t248.5 61.5h604l6 -353h-67l-19 284h-313v-451h172v151h69v-372h-69v151h-172v-491h342l13 286h67v-356h-617q-172 0 -285 82t-165 216t-52 294zM116 590q0 -112 25 -205.5t80 -165t143 -110.5t212 -39h73v1012h-147q-76 0 -164 -41 t-155 -151t-67 -300z" />
<glyph unicode="&#x153;" d="M53 434q0 124 29 230t92.5 172.5t159.5 66.5q62 0 110.5 -27t81 -75t52.5 -113h4q32 90 102 152.5t164 62.5q96 0 159.5 -65.5t92 -159.5t28.5 -182q0 -12 -2 -37t-2 -37h-510q2 -164 65 -273.5t199 -109.5q82 0 226 41l26 -62q-132 -48 -262 -48q-210 0 -286 222h-4 q-22 -84 -79.5 -153t-162.5 -69q-106 0 -169 74t-88.5 180t-25.5 210zM129 436q0 -143 41.5 -270t163.5 -127q119 0 161.5 124.5t42.5 272.5q0 149 -43 273.5t-163 124.5q-80 0 -126 -67.5t-61.5 -157t-15.5 -173.5zM614 492h438q0 75 -18.5 153t-65 133.5t-122.5 55.5 q-58 0 -111 -43t-85.5 -114.5t-35.5 -148.5v-36z" />
<glyph unicode="&#x178;" d="M64 1082v69h378v-69h-172l344 -564l344 564h-172v69h380v-69h-124l-390 -640v-372h253v-70h-583v70h254v372l-390 640h-122zM404 1392q0 33 22.5 53.5t50.5 20.5q32 0 53 -22t21 -50q0 -34 -22.5 -55t-51.5 -21q-33 0 -53 23t-20 51zM674 1392q0 33 23 53.5t51 20.5 q32 0 53 -22t21 -50q0 -34 -23 -55t-51 -21q-33 0 -53.5 23t-20.5 51z" />
<glyph unicode="&#x2c6;" d="M254 1016l284 324h152l285 -324l-51 -39l-310 281l-309 -281z" />
<glyph unicode="&#x2dc;" d="M223 1063q26 75 85 126.5t132 51.5q54 0 95 -18.5t89 -53.5t81 -52t77 -17q52 0 94 40t60 95l70 -21q-26 -82 -90 -133t-146 -51q-46 0 -87 18.5t-89.5 53t-83 52.5t-70.5 18q-50 0 -89.5 -39t-59.5 -93z" />
<glyph unicode="&#x2000;" horiz-adv-x="812" />
<glyph unicode="&#x2001;" horiz-adv-x="1624" />
<glyph unicode="&#x2002;" horiz-adv-x="812" />
<glyph unicode="&#x2003;" horiz-adv-x="1624" />
<glyph unicode="&#x2004;" horiz-adv-x="541" />
<glyph unicode="&#x2005;" horiz-adv-x="406" />
<glyph unicode="&#x2006;" horiz-adv-x="270" />
<glyph unicode="&#x2007;" horiz-adv-x="270" />
<glyph unicode="&#x2008;" horiz-adv-x="203" />
<glyph unicode="&#x2009;" horiz-adv-x="324" />
<glyph unicode="&#x200a;" horiz-adv-x="90" />
<glyph unicode="&#x2010;" d="M226 488v82h778v-82h-778z" />
<glyph unicode="&#x2011;" d="M226 488v82h778v-82h-778z" />
<glyph unicode="&#x2012;" d="M226 488v82h778v-82h-778z" />
<glyph unicode="&#x2013;" d="M154 488v82h921v-82h-921z" />
<glyph unicode="&#x2014;" horiz-adv-x="1188" d="M0 488v82h1229v-82h-1229z" />
<glyph unicode="&#x2018;" d="M459 1151h182l151 -479h-118z" />
<glyph unicode="&#x2019;" d="M436 672l152 479h182l-215 -479h-119z" />
<glyph unicode="&#x201a;" d="M436 -274l152 479h182l-215 -479h-119z" />
<glyph unicode="&#x201c;" d="M293 1151h182l151 -479h-118zM602 1151h182l152 -479h-119z" />
<glyph unicode="&#x201d;" d="M293 672l151 479h182l-214 -479h-119zM602 672l152 479h182l-215 -479h-119z" />
<glyph unicode="&#x201e;" d="M293 -274l151 479h182l-214 -479h-119zM602 -274l152 479h182l-215 -479h-119z" />
<glyph unicode="&#x2022;" d="M366 528q0 68 39 123.5t96.5 87t110.5 31.5q59 0 117.5 -32t95.5 -88t37 -122q0 -68 -38 -125t-96 -90t-114 -33t-114 33t-96 90t-38 125z" />
<glyph unicode="&#x2026;" d="M90 82q0 53 37 84.5t76 31.5q28 0 54.5 -14t44.5 -40t18 -60q0 -47 -35 -80.5t-80 -33.5q-44 0 -79.5 33.5t-35.5 78.5zM500 82q0 53 37 84.5t75 31.5q28 0 55 -14t44.5 -40t17.5 -60q0 -48 -34.5 -81t-80.5 -33q-44 0 -79 33.5t-35 78.5zM910 82q0 53 37 84.5t75 31.5 q28 0 55 -14t44 -40t17 -60q0 -48 -34.5 -81t-79.5 -33q-44 0 -79 33.5t-35 78.5z" />
<glyph unicode="&#x202f;" horiz-adv-x="324" />
<glyph unicode="&#x2039;" d="M305 528l571 386l48 -58l-416 -328l416 -328l-48 -56z" />
<glyph unicode="&#x203a;" d="M305 200l416 328l-416 328l47 58l572 -386l-572 -384z" />
<glyph unicode="&#x205f;" horiz-adv-x="406" />
<glyph unicode="&#x2122;" d="M20 944v207h486v-207h-56v152h-155v-502h123v-56h-310v56h124v502h-156v-152h-56zM580 538v56h61v502h-61v55h188l125 -391h4l125 391h188v-55h-61v-502h61v-56h-227v56h103v502h-15l-137 -402h-78l-137 402h-15v-502h103v-56h-227z" />
<glyph unicode="&#x25fc;" horiz-adv-x="872" d="M0 0v872h872v-872h-872z" />
</font>
</defs>
</svg>
